name rise35.5848peak51.9257fall54.8793.mot
datacolumns 19
datarows 26
range 15.85494700000000 15.89660200000000
endheader
time	ground_force1_vx	ground_force1_vy	ground_force1_vz	ground_force1_px	ground_force1_py	ground_force1_pz	ground_force2_vx	ground_force2_vy	ground_force2_vz	ground_force2_px	ground_force2_py	ground_force2_pz	ground_torque1_x	ground_torque1_y	ground_torque1_z	ground_torque2_x	ground_torque2_y	ground_torque2_z	
15.85494700000000	-44.55149900000000	811.57655699999998	57.51950200000000	0.08247900000000	0.00000000000000	0.12800500000000	-4.25423600000000	64.42476499999999	7.94609900000000	0.32204200000000	0.00000000000000	-0.05907700000000	0.00000000000000	20.05461200000000	0.00000000000000	0.00000000000000	4.81057900000000	0.00000000000000	
15.85659700000000	-44.92407100000000	810.05428600000005	57.41487400000000	0.08190400000000	0.00000000000000	0.12791400000000	-4.42847100000000	70.16388400000000	8.46575900000000	0.32549200000000	0.00000000000000	-0.05921600000000	0.00000000000000	20.00745900000000	0.00000000000000	0.00000000000000	5.18483600000000	0.00000000000000	
15.85826700000000	-45.30913600000000	808.39609900000005	57.28889500000000	0.08133800000000	0.00000000000000	0.12781900000000	-4.54292500000000	75.64464400000000	8.91565000000000	0.32868000000000	0.00000000000000	-0.05935600000000	0.00000000000000	19.96212100000000	0.00000000000000	0.00000000000000	5.52291500000000	0.00000000000000	
15.85993800000000	-45.70719000000000	806.59951300000000	57.14106000000000	0.08078100000000	0.00000000000000	0.12771900000000	-4.59831900000000	80.87500700000000	9.29729400000000	0.33162800000000	0.00000000000000	-0.05949600000000	0.00000000000000	19.91873200000000	0.00000000000000	0.00000000000000	5.82461100000000	0.00000000000000	
15.86160800000000	-46.11867600000000	804.66210500000000	56.97089600000000	0.08023300000000	0.00000000000000	0.12761600000000	-4.59710600000000	85.88185700000000	9.61496500000000	0.33435700000000	0.00000000000000	-0.05963900000000	0.00000000000000	19.87741700000000	0.00000000000000	0.00000000000000	6.09147300000000	0.00000000000000	
15.86326600000000	-46.54397600000000	802.58151199999998	56.77796400000000	0.07969300000000	0.00000000000000	0.12750800000000	-4.54296100000000	90.70599400000000	9.87488200000000	0.33688500000000	0.00000000000000	-0.05978300000000	0.00000000000000	19.83828100000000	0.00000000000000	0.00000000000000	6.32636600000000	0.00000000000000	
15.86493900000000	-46.98341000000000	800.35543600000005	56.56185800000000	0.07916000000000	0.00000000000000	0.12739600000000	-4.44026000000000	95.39686200000000	10.08439800000000	0.33922700000000	0.00000000000000	-0.05993000000000	0.00000000000000	19.80141700000000	0.00000000000000	0.00000000000000	6.53299400000000	0.00000000000000	
15.86662500000000	-47.43723000000000	797.98164899999995	56.32221000000000	0.07863400000000	0.00000000000000	0.12728100000000	-4.29359500000000	100.00749100000000	10.25122100000000	0.34139500000000	0.00000000000000	-0.06008000000000	0.00000000000000	19.76689900000000	0.00000000000000	0.00000000000000	6.71544400000000	0.00000000000000	
15.86826700000000	-47.90561900000000	795.45799299999999	56.05869100000000	0.07811300000000	0.00000000000000	0.12716100000000	-4.10736500000000	104.59000899999999	10.38275400000000	0.34340300000000	0.00000000000000	-0.06023400000000	0.00000000000000	19.73478600000000	0.00000000000000	0.00000000000000	6.87777100000000	0.00000000000000	
15.86993400000000	-48.38868400000000	792.78238399999998	55.77101300000000	0.07759600000000	0.00000000000000	0.12703700000000	-3.88544400000000	109.19198900000001	10.48556400000000	0.34525800000000	0.00000000000000	-0.06039200000000	0.00000000000000	19.70511900000000	0.00000000000000	0.00000000000000	7.02366300000000	0.00000000000000	
15.87162800000000	-48.88645700000000	789.95281599999998	55.45892600000000	0.07708400000000	0.00000000000000	0.12690900000000	-3.63096700000000	113.85376500000000	10.56501200000000	0.34697200000000	0.00000000000000	-0.06055300000000	0.00000000000000	19.67792000000000	0.00000000000000	0.00000000000000	7.15618900000000	0.00000000000000	
15.87327200000000	-49.39888500000000	786.96736599999997	55.12222500000000	0.07657400000000	0.00000000000000	0.12677800000000	-3.34619500000000	118.60674700000000	10.62503300000000	0.34855100000000	0.00000000000000	-0.06071900000000	0.00000000000000	19.65319500000000	0.00000000000000	0.00000000000000	7.27764400000000	0.00000000000000	
15.87494700000000	-49.92583600000000	783.82419500000003	54.76075000000000	0.07606600000000	0.00000000000000	0.12664300000000	-3.03248900000000	123.47269300000001	10.66806700000000	0.35000200000000	0.00000000000000	-0.06088900000000	0.00000000000000	19.63092900000000	0.00000000000000	0.00000000000000	7.38948000000000	0.00000000000000	
15.87659700000000	-50.46708600000000	780.52155400000004	54.37438300000000	0.07555900000000	0.00000000000000	0.12650400000000	-2.69035300000000	128.46380700000000	10.69511400000000	0.35133200000000	0.00000000000000	-0.06106400000000	0.00000000000000	19.61108900000000	0.00000000000000	0.00000000000000	7.49231500000000	0.00000000000000	
15.87826600000000	-51.02232500000000	777.05778799999996	53.96305300000000	0.07505100000000	0.00000000000000	0.12636100000000	-2.31953500000000	133.58351900000000	10.70588600000000	0.35254700000000	0.00000000000000	-0.06124300000000	0.00000000000000	19.59362400000000	0.00000000000000	0.00000000000000	7.58600100000000	0.00000000000000	
15.87993300000000	-51.59114900000000	773.43133799999998	53.52673900000000	0.07454200000000	0.00000000000000	0.12621500000000	-1.91918000000000	138.82775300000000	10.69902500000000	0.35365100000000	0.00000000000000	-0.06142700000000	0.00000000000000	19.57846200000000	0.00000000000000	0.00000000000000	7.66975200000000	0.00000000000000	
15.88160300000000	-52.17306100000000	769.64074800000003	53.06546200000000	0.07403100000000	0.00000000000000	0.12606600000000	-1.48799500000000	144.18650700000001	10.67236700000000	0.35464900000000	0.00000000000000	-0.06161600000000	0.00000000000000	19.56551300000000	0.00000000000000	0.00000000000000	7.74228400000000	0.00000000000000	
15.88326500000000	-52.76746700000000	765.68466699999999	52.57929600000000	0.07351700000000	0.00000000000000	0.12591300000000	-1.02442400000000	149.64555799999999	10.62321500000000	0.35554500000000	0.00000000000000	-0.06180900000000	0.00000000000000	19.55466600000000	0.00000000000000	0.00000000000000	7.80197900000000	0.00000000000000	
15.88493600000000	-53.37367500000000	761.56185300000004	52.06836200000000	0.07299800000000	0.00000000000000	0.12575700000000	-0.52682100000000	155.18816200000001	10.54860700000000	0.35634300000000	0.00000000000000	-0.06200700000000	0.00000000000000	19.54579300000000	0.00000000000000	0.00000000000000	7.84704300000000	0.00000000000000	
15.88659800000000	-53.99089500000000	757.27117699999997	51.53283100000000	0.07247400000000	0.00000000000000	0.12559800000000	0.00640400000000	160.79659799999999	10.44555100000000	0.35704700000000	0.00000000000000	-0.06221000000000	0.00000000000000	19.53874300000000	0.00000000000000	0.00000000000000	7.87565100000000	0.00000000000000	
15.88827100000000	-54.61823600000000	752.81163100000003	50.97292100000000	0.07194200000000	0.00000000000000	0.12543600000000	0.57666100000000	166.45350500000001	10.31122900000000	0.35766000000000	0.00000000000000	-0.06241800000000	0.00000000000000	19.53335000000000	0.00000000000000	0.00000000000000	7.88607400000000	0.00000000000000	
15.88993600000000	-55.25471000000000	748.18232699999999	50.38890500000000	0.07140300000000	0.00000000000000	0.12527100000000	1.18508500000000	172.14292699999999	10.14314900000000	0.35818400000000	0.00000000000000	-0.06263000000000	0.00000000000000	19.52942600000000	0.00000000000000	0.00000000000000	7.87677300000000	0.00000000000000	
15.89160000000000	-55.89922600000000	743.38250600000003	49.78110000000000	0.07085500000000	0.00000000000000	0.12510400000000	1.83247600000000	177.85105999999999	9.93924800000000	0.35862300000000	0.00000000000000	-0.06284700000000	0.00000000000000	19.52676800000000	0.00000000000000	0.00000000000000	7.84646900000000	0.00000000000000	
15.89326800000000	-56.55059400000000	738.41153899999995	49.14987600000000	0.07029800000000	0.00000000000000	0.12493300000000	2.51926700000000	183.56670199999999	9.69795900000000	0.35897900000000	0.00000000000000	-0.06306800000000	0.00000000000000	19.52515100000000	0.00000000000000	0.00000000000000	7.79418500000000	0.00000000000000	
15.89493800000000	-57.20752700000000	733.26893500000006	48.49565100000000	0.06972900000000	0.00000000000000	0.12476100000000	3.24551200000000	189.28143399999999	9.41822100000000	0.35925500000000	0.00000000000000	-0.06329300000000	0.00000000000000	19.52433500000000	0.00000000000000	0.00000000000000	7.71926100000000	0.00000000000000	
15.89660200000000	-57.86864000000000	727.95434599999999	47.81889400000000	0.06914700000000	0.00000000000000	0.12458600000000	4.01091200000000	194.98956999999999	9.09946700000000	0.35945300000000	0.00000000000000	-0.06352200000000	0.00000000000000	19.52406300000000	0.00000000000000	0.00000000000000	7.62134300000000	0.00000000000000	
